<?xml version="1.0" encoding="UTF-8"?>
<svg width="179px" height="28px" viewBox="0 0 179 28" version="1.1" xmlns="http://www.w3.org/2000/svg" xmlns:xlink="http://www.w3.org/1999/xlink">
    <!-- Generator: Sketch 51.2 (57519) - http://www.bohemiancoding.com/sketch -->
    <title>Dominos_logo</title>
    <desc>Created with Sketch.</desc>
    <defs>
        <polygon id="path-1" points="0 0.164794423 27.0844341 0.164794423 27.0844341 26.3574862 0 26.3574862"></polygon>
        <polygon id="path-3" points="0.24249434 0.0799353434 1.21205602 0.0799353434 1.21205602 1.25605505 0.24249434 1.25605505"></polygon>
        <polygon id="path-5" points="0.0784066763 0.0799353434 1.39583628 0.0799353434 1.39583628 1.25605505 0.0784066763 1.25605505"></polygon>
        <polygon id="path-7" points="0.214410305 0.214182507 1.85131205 0.214182507 1.85131205 1.79706308 0.214410305 1.79706308"></polygon>
    </defs>
    <g id="Dominos_logo" stroke="none" stroke-width="1" fill="none" fill-rule="evenodd">
        <g id="Page-1">
            <g>
                <g id="Group-3" transform="translate(0.000000, 0.086417)">
                    <mask id="mask-2" fill="white">
                        <use xlink:href="#path-1"></use>
                    </mask>
                    <g id="Clip-2"></g>
                    <path d="M26.6039724,7.74501129 L19.2460073,0.630464272 C18.9355501,0.330267115 18.5227329,0.164719059 18.0834165,0.164719059 C17.6443599,0.164719059 17.231283,0.330267115 16.9208258,0.630464272 L10.7509115,6.59697697 L0.48088389,16.5275994 C-0.16029463,17.1478394 -0.16029463,18.1562004 0.48088389,18.7761892 L7.83858926,25.891741 C8.14904644,26.1921894 8.56212337,26.3574862 9.00117997,26.3574862 C9.44049637,26.3574862 9.8530537,26.1921894 10.1640305,25.891741 L19.3686313,16.989074 L26.6037126,9.99334983 C27.2446313,9.37361226 27.2446313,8.36500006 26.6039724,7.74501129" id="Fill-1" fill="#FEFEFE" mask="url(#mask-2)"></path>
                </g>
                <path d="M19.6127884,10.3942072 C19.1960743,10.7963961 18.649202,10.9973649 18.1057071,10.9973649 C17.561173,10.9971137 17.0150801,10.7963961 16.5981062,10.3942072 C16.1826911,9.99226962 15.9732949,9.46372165 15.9732949,8.93718338 C15.9732949,8.40989147 16.1826911,7.88109229 16.5981062,7.47990831 C17.0150801,7.07797069 17.5603936,6.87524341 18.1057071,6.87549462 C18.649202,6.87549462 19.1960743,7.07621221 19.6127884,7.47990831 C20.0276839,7.88109229 20.2375997,8.40989147 20.2373399,8.93718338 C20.2375997,9.46296802 20.0276839,9.99201841 19.6127884,10.3942072 M26.0835475,8.33729148 L18.7255823,1.22274447 C18.3709597,0.879841441 17.7960293,0.879841441 17.4411469,1.22274447 L9.48642845,8.91507681 L18.1280496,17.2716111 L26.0835475,9.57927872 C26.4381701,9.23637569 26.4381701,8.68044572 26.0835475,8.33729148" id="Fill-4" fill="#E21836"></path>
                <path d="M10.613401,16.3351969 C11.0293357,15.9320032 11.5754286,15.7310344 12.1199627,15.7310344 C12.6652762,15.7310344 13.2113691,15.9320032 13.6262646,16.3351969 C14.0440179,16.7371345 14.2521151,17.2636728 14.2521151,17.792472 C14.2521151,18.3190102 14.0440179,18.8470558 13.6262646,19.2482398 C13.2113691,19.6489213 12.6652762,19.8511462 12.1199627,19.8516486 C11.5751688,19.8516486 11.0293357,19.6491725 10.613401,19.2482398 C10.1969467,18.8457997 9.9885897,18.3177542 9.9885897,17.792472 C9.9885897,17.2651801 10.1969467,16.7371345 10.613401,16.3351969 Z M7.37295544,19.166345 C6.95572177,19.5665241 6.40962888,19.7677441 5.86535457,19.7677441 C5.31952148,19.7677441 4.77394819,19.5667753 4.3577537,19.166345 C3.94103962,18.7646586 3.73450116,18.2363618 3.73450116,17.7098235 C3.73450116,17.1825316 3.94207881,16.6544861 4.3580135,16.2510412 C4.77394819,15.8493548 5.31952148,15.6486372 5.86535457,15.648386 C6.40962888,15.6486372 6.95676096,15.8493548 7.37295544,16.2512924 C7.78863033,16.6544861 7.99594819,17.1825316 7.99542859,17.7090699 C7.99542859,18.2358594 7.78863033,18.765161 7.37295544,19.166345 Z M1.00117896,17.1172168 C0.646556313,17.460371 0.646556313,18.016301 1.00117896,18.3594552 L8.35888433,25.4752583 C8.53606575,25.6465842 8.76858389,25.7322471 9.00110203,25.7322471 C9.23362017,25.7322471 9.46613832,25.6465842 9.64357954,25.4752583 L17.594401,17.7851868 L8.95252003,9.4286526 L1.00117896,17.1172168 Z" id="Fill-6" fill="#0078AD"></path>
                <g id="Group-10" transform="translate(10.651669, 26.463573)">
                    <mask id="mask-4" fill="white">
                        <use xlink:href="#path-3"></use>
                    </mask>
                    <g id="Clip-9"></g>
                    <polygon id="Fill-8" fill="#0078AD" mask="url(#mask-4)" points="0.597896372 1.25610529 0.597896372 0.300247399 0.24249434 0.300247399 0.24249434 0.0799353434 1.21205602 0.0799353434 1.21205602 0.300247399 0.858472569 0.300247399 0.858472569 1.25610529"></polygon>
                </g>
                <g id="Group-13" transform="translate(11.950653, 26.463573)">
                    <mask id="mask-6" fill="white">
                        <use xlink:href="#path-5"></use>
                    </mask>
                    <g id="Clip-12"></g>
                    <polygon id="Fill-11" fill="#0078AD" mask="url(#mask-6)" points="1.13526009 1.25610529 1.13526009 0.408016922 0.792588099 1.25610529 0.679836284 1.25610529 0.337164296 0.408016922 0.337164296 1.25610529 0.0784066763 1.25610529 0.0784066763 0.0799353434 0.440823222 0.0799353434 0.736212192 0.814978759 1.03134136 0.0799353434 1.39583628 0.0799353434 1.39583628 1.25610529"></polygon>
                </g>
                <path d="M34.5952702,22.5888689 L32.4407753,22.5888689 L32.4407753,15.7581903 L34.6152746,15.7581903 C36.861218,15.7581903 38.2028087,17.0298205 38.2028087,19.1613459 C38.2028087,20.8638029 36.9635779,22.5888689 34.5952702,22.5888689 M34.5952702,11.9432999 L28.288443,11.9432999 C28.0793065,11.9432999 27.9109582,12.1058335 27.9109582,12.3093144 L27.9109582,26.0384985 C27.9109582,26.2382112 28.0793065,26.4020008 28.288443,26.4020008 L34.6152746,26.4020008 C39.5864865,26.4020008 42.7993936,23.5608043 42.7993936,19.1613459 C42.7993936,14.7759553 39.5784328,11.9432999 34.5952702,11.9432999" id="Fill-14" fill="#0078AD"></path>
                <path d="M70.7581284,15.6722008 C69.0167104,15.6722008 67.6021168,16.5971597 66.9697714,17.5145823 C66.5070733,16.2921896 65.4572344,15.6722008 63.8535087,15.6722008 C62.0790965,15.6722008 60.7354274,16.5401348 60.2662344,17.1234468 L60.2662344,16.2967114 C60.2662344,16.0944865 60.0976263,15.9324554 59.8892692,15.9324554 L56.6082954,15.9324554 C56.4001981,15.9324554 56.23159,16.0944865 56.23159,16.2967114 L56.23159,26.0386743 C56.23159,26.2381359 56.4001981,26.4019255 56.6082954,26.4019255 L59.8892692,26.4019255 C60.0976263,26.4019255 60.2662344,26.2381359 60.2662344,26.0386743 L60.2662344,19.9415319 L60.2672736,19.9390198 C60.5047279,19.6739922 60.9978222,19.1180622 61.9032141,19.1180622 C62.6981923,19.1180622 63.1367293,19.5350725 63.1367293,20.2894592 L63.1367293,26.0386743 C63.1367293,26.2381359 63.3061168,26.4019255 63.5136945,26.4019255 L66.7946684,26.4019255 C67.0027656,26.4019255 67.1726727,26.2381359 67.1726727,26.0386743 L67.1726727,19.9415319 C67.4090878,19.6742434 67.9029615,19.1180622 68.829397,19.1180622 C69.6145029,19.1180622 70.0639514,19.5451209 70.0639514,20.2894592 L70.0639514,26.0386743 C70.0639514,26.2381359 70.2315203,26.4019255 70.4409165,26.4019255 L73.7208512,26.4019255 C73.9284289,26.4019255 74.0978164,26.2381359 74.0978164,26.0386743 L74.0978164,18.8158554 C74.0978164,16.7883313 72.913143,15.6722008 70.7581284,15.6722008" id="Fill-16" fill="#0078AD"></path>
                <path d="M79.3999315,15.9325056 L76.1189576,15.9325056 C75.9098212,15.9325056 75.7409533,16.0955416 75.7409533,16.2967616 L75.7409533,26.0384734 C75.7409533,26.2379349 75.9098212,26.4019757 76.1189576,26.4019757 L79.3999315,26.4019757 C79.6080287,26.4019757 79.7779358,26.2379349 79.7779358,26.0384734 L79.7779358,16.2967616 C79.7779358,16.0955416 79.6080287,15.9325056 79.3999315,15.9325056" id="Fill-18" fill="#0078AD"></path>
                <path d="M77.8584012,10.7944617 C76.6100775,10.7944617 75.5921936,11.776948 75.5921936,12.9830121 C75.5921936,14.1918394 76.6100775,15.1733209 77.8584012,15.1733209 C79.105166,15.1733209 80.1225303,14.1918394 80.1225303,12.9830121 C80.1225303,11.776948 79.105166,10.7944617 77.8584012,10.7944617" id="Fill-20" fill="#0078AD"></path>
                <path d="M89.2427752,15.6722008 C87.1511511,15.6722008 86.0135009,16.5813334 85.5230045,17.1234468 L85.5230045,16.2967114 C85.5230045,16.0944865 85.3528376,15.9324554 85.1450001,15.9324554 L81.8640263,15.9324554 C81.6569682,15.9324554 81.4873209,16.0944865 81.4873209,16.2967114 L81.4873209,26.0386743 C81.4873209,26.2381359 81.6569682,26.4019255 81.8640263,26.4019255 L85.1450001,26.4019255 C85.3528376,26.4019255 85.5230045,26.2381359 85.5230045,26.0386743 L85.5230045,19.9415319 C85.7838405,19.6549001 86.2732977,19.1180622 87.2480553,19.1180622 C88.2908797,19.1180622 88.818527,19.6217403 88.818527,20.6117629 L88.818527,26.0386743 C88.818527,26.2381359 88.9871351,26.4019255 89.1960118,26.4019255 L92.4759464,26.4019255 C92.6850829,26.4019255 92.8529116,26.2381359 92.8529116,26.0386743 L92.8529116,18.967838 C92.8529116,16.9036372 91.5043064,15.6722008 89.2427752,15.6722008" id="Fill-22" fill="#0078AD"></path>
                <path d="M49.3049914,22.958551 C48.2278739,22.958551 47.3559958,22.1149844 47.3559958,21.0696954 C47.3559958,20.0289282 48.2278739,19.1866177 49.3049914,19.1866177 C50.382109,19.1866177 51.2555459,20.0289282 51.2555459,21.0696954 C51.2555459,22.1149844 50.382109,22.958551 49.3049914,22.958551 M49.3049914,15.6241944 C46.1484602,15.6241944 43.5889421,18.098874 43.5889421,21.1475708 C43.5889421,24.2033016 46.1484602,26.6769764 49.3049914,26.6769764 C52.4625618,26.6769764 55.0205212,24.2033016 55.0205212,21.1475708 C55.0205212,18.098874 52.4625618,15.6241944 49.3049914,15.6241944" id="Fill-24" fill="#0078AD"></path>
                <path d="M99.7650655,22.9752314 C98.6882077,22.9752314 97.8160698,22.1289015 97.8160698,21.0861246 C97.8160698,20.0471159 98.6882077,19.2038005 99.7650655,19.2038005 C100.843742,19.2038005 101.71562,20.0471159 101.71562,21.0861246 C101.71562,22.1289015 100.843742,22.9752314 99.7650655,22.9752314 M99.7650655,15.6408748 C96.6098332,15.6408748 94.0505749,18.1148008 94.0505749,21.1662609 C94.0505749,24.2202332 96.6098332,26.6946616 99.7650655,26.6946616 C102.922116,26.6946616 105.483193,24.2202332 105.483193,21.1662609 C105.483193,18.1148008 102.922116,15.6408748 99.7650655,15.6408748" id="Fill-26" fill="#0078AD"></path>
                <path d="M108.634165,12.5480151 L108.634165,12.5462566 C108.633645,12.545503 108.633645,12.5447493 108.633645,12.5439957 C108.631047,12.5352033 108.629488,12.5249037 108.62715,12.5161113 L108.626111,12.5171161 C108.373848,11.4273628 107.147867,10.6398162 105.939292,10.8817324 C104.719027,11.1259095 103.917813,12.2239529 104.154748,13.3297837 C104.350115,14.2419309 105.190298,14.8764899 106.163497,14.9345197 C106.101665,15.3078192 105.760552,15.6414274 105.476594,15.7959222 C105.286163,15.8994212 105.400474,16.096873 105.400474,16.096873 L105.651697,16.4568584 C105.724181,16.5776909 105.834335,16.63974 105.964233,16.5877393 C108.467115,15.5962095 108.894481,13.5317574 108.634165,12.5480151" id="Fill-28" fill="#0078AD"></path>
                <path d="M111.544201,19.0471202 C111.534069,18.6562359 112.058339,18.4834027 112.714326,18.4834027 C114.020324,18.4834027 114.764382,18.8436393 115.597031,19.3749506 C115.683803,19.4317243 115.7898,19.4495603 115.89216,19.4261976 C115.993221,19.4025838 116.080513,19.3392786 116.131173,19.2508524 L117.238947,17.3881227 C117.340008,17.2162944 117.279995,16.997992 117.104892,16.8962516 C116.194564,16.3709693 114.861286,15.6924484 112.545717,15.6924484 C109.206549,15.6924484 107.418887,17.212275 107.717654,19.3973084 C108.242963,23.2373199 114.418333,21.9212254 114.321688,23.231542 C114.299865,23.5347537 113.753513,23.7605924 112.807593,23.7605924 C111.585768,23.7605924 110.196894,23.1687393 109.3206,22.6442107 C109.234347,22.5919588 109.127311,22.5763837 109.029887,22.6015048 C108.929865,22.6263747 108.846211,22.6876702 108.79607,22.7745892 L107.515791,24.837534 C107.418887,25.0043381 107.468249,25.2143505 107.63244,25.320864 C108.861539,26.1227295 110.845088,26.6620796 112.56754,26.6620796 C115.910606,26.6620796 117.837778,25.2733851 117.838298,22.9916355 C117.839077,18.781339 111.57122,20.0876362 111.544201,19.0471202" id="Fill-30" fill="#0078AD"></path>
                <path d="M143.452782,26.4631205 C143.452782,26.6645917 143.620871,26.8266228 143.828448,26.8266228 L152.459678,26.8266228 C152.680765,26.8266228 152.837682,26.6645917 152.837682,26.4631205 L152.837682,23.8218879 C152.837682,23.6226776 152.668554,23.4591392 152.459678,23.4591392 L148.808493,23.4591392 C148.808493,23.4591392 151.946839,19.99921 152.505662,19.3716849 C152.659462,19.1996053 152.860544,19.0235064 152.860544,18.5703217 L152.860544,16.7583367 C152.860544,16.5578703 152.691936,16.3945832 152.48202,16.3945832 L143.828448,16.3945832 C143.62191,16.3945832 143.452782,16.5566143 143.452782,16.7583367 L143.452782,18.9840663 L143.452782,19.4003229 C143.452782,19.6007893 143.620871,19.7630716 143.828448,19.7630716 L144.289328,19.7630716 L147.537827,19.7630716 C147.537827,19.7630716 143.746353,23.9540249 143.680364,24.029137 C143.527084,24.199458 143.452782,24.4388621 143.452782,24.6950974 L143.452782,26.4631205 Z" id="Fill-32" fill="#0078AD"></path>
                <path d="M154.208994,26.4631205 C154.208994,26.6645917 154.376822,26.8266228 154.586478,26.8266228 L163.21485,26.8266228 C163.434898,26.8266228 163.589997,26.6645917 163.589997,26.4631205 L163.589997,23.8218879 C163.589997,23.6226776 163.422428,23.4591392 163.212772,23.4591392 L159.601596,23.4591392 C159.601596,23.4591392 162.698114,19.9964466 163.261094,19.3716849 C163.415933,19.2003589 163.612859,19.0235064 163.612859,18.5703217 C163.612859,18.4781273 163.613898,16.7583367 163.613898,16.7583367 C163.613898,16.5578703 163.446589,16.3945832 163.237452,16.3945832 L154.586478,16.3945832 C154.377082,16.3945832 154.208994,16.5566143 154.208994,16.7583367 L154.208994,18.9840663 L154.208994,19.4003229 C154.208994,19.6007893 154.376822,19.7630716 154.586478,19.7630716 L155.04502,19.7630716 L158.29248,19.7630716 C158.29248,19.7630716 154.503343,23.9540249 154.436576,24.029137 C154.283036,24.199458 154.208994,24.4388621 154.208994,24.6950974 L154.208994,26.4631205 Z" id="Fill-34" fill="#0078AD"></path>
                <path d="M176.249349,16.3673268 L172.970973,16.3673268 C172.763915,16.3673268 172.594268,16.5306139 172.594268,16.7320852 L172.594268,17.3473009 C171.712258,16.5620153 170.582402,16.0899898 169.350965,16.0899898 C166.533988,16.0899898 164.250634,18.5611525 164.250634,21.6101006 C164.250634,24.6620631 166.533988,27.1317186 169.350965,27.1317186 C170.582402,27.1317186 171.712258,26.6599443 172.594268,25.8756635 L172.594268,26.4634973 C172.594268,26.6644661 172.763915,26.8267484 172.970973,26.8267484 L176.249349,26.8267484 C176.457187,26.8267484 176.626574,26.6644661 176.626574,26.4634973 L176.626574,16.7320852 C176.626574,16.5306139 176.457187,16.3673268 176.249349,16.3673268 M170.437695,23.599943 C169.246007,23.599943 168.281641,22.6649356 168.281641,21.510621 C168.281641,20.3623355 169.246007,19.4293378 170.437695,19.4293378 C171.629643,19.4293378 172.594268,20.3623355 172.594268,21.510621 C172.594268,22.6649356 171.629643,23.599943 170.437695,23.599943" id="Fill-36" fill="#0078AD"></path>
                <path d="M141.711858,16.3945581 L138.440756,16.3945581 C138.234737,16.3945581 138.06509,16.5578452 138.06509,16.757558 L138.06509,26.465105 C138.06509,26.6645666 138.234737,26.8271001 138.440756,26.8271001 L141.711858,26.8271001 C141.919176,26.8271001 142.087264,26.6645666 142.087264,26.465105 L142.087264,16.757558 C142.087264,16.5578452 141.919176,16.3945581 141.711858,16.3945581" id="Fill-38" fill="#0078AD"></path>
                <path d="M140.076203,11.2761337 C138.833335,11.2761337 137.819089,12.253847 137.819089,13.4573989 C137.819089,14.6612021 138.833335,15.6391665 140.076203,15.6391665 C141.319591,15.6391665 142.332538,14.6612021 142.332538,13.4573989 C142.332538,12.253847 141.319591,11.2761337 140.076203,11.2761337" id="Fill-40" fill="#0078AD"></path>
                <path d="M134.753148,13.5049029 C133.372069,12.579944 131.95098,12.3618928 129.720365,12.3618928 L125.531661,12.3779703 C125.335254,12.3779703 125.175999,12.5309578 125.175999,12.7218782 L125.175999,26.4824637 C125.175999,26.6728817 125.335254,26.8266228 125.53244,26.8266228 L128.940455,26.8266228 L129.348596,26.8266228 C129.545521,26.8266228 129.706336,26.6733841 129.706336,26.4814589 L129.704517,26.0624389 L129.706336,23.0227857 C131.662606,23.0227857 133.646674,23.0039449 135.117124,21.7725085 C136.142802,20.9161301 136.91154,19.5332135 136.91154,17.6649573 C136.91154,16.2167258 136.146699,14.4366446 134.753148,13.5049029 M130.530671,19.407608 L129.706336,19.407608 L129.706336,16.1210144 L130.55691,16.1210144 C132.241953,16.1210144 132.722577,16.9211215 132.722577,17.6566673 C132.722577,18.5602733 132.304564,19.407608 130.530671,19.407608" id="Fill-42" fill="#0078AD"></path>
                <g id="Group-46" transform="translate(176.921626, 16.163921)">
                    <mask id="mask-8" fill="white">
                        <use xlink:href="#path-7"></use>
                    </mask>
                    <g id="Clip-45"></g>
                    <path d="M1.10239579,0.665859903 L0.851172279,0.665859903 L0.851172279,0.986907574 L1.10239579,0.986907574 C1.18345239,0.986907574 1.2723029,0.923602399 1.2723029,0.829900693 C1.2723029,0.729416289 1.18345239,0.665859903 1.10239579,0.665859903 Z M1.25671509,1.46094275 L1.01354528,1.10246464 L0.851172279,1.10246464 L0.851172279,1.46094275 L0.720234688,1.46094275 L0.720234688,0.553819793 L1.10239579,0.553819793 C1.26061205,0.553819793 1.40739724,0.661589316 1.40739724,0.829900693 C1.40739724,1.03187434 1.22216212,1.09894768 1.16838418,1.09894768 L1.4190881,1.46094275 L1.25671509,1.46094275 Z M1.03277025,0.333758948 C0.646712192,0.333758948 0.337813788,0.628429463 0.337813788,1.00599961 C0.337813788,1.3752798 0.646712192,1.67748664 1.03277025,1.67748664 C1.4190881,1.67748664 1.72746691,1.3752798 1.72746691,1.00599961 C1.72746691,0.628429463 1.4190881,0.333758948 1.03277025,0.333758948 Z M1.03277025,1.79706308 C0.580723803,1.79706308 0.214410305,1.44285556 0.214410305,1.00599961 C0.214410305,0.565124288 0.580723803,0.214182507 1.03277025,0.214182507 C1.48845385,0.214182507 1.85138999,0.565124288 1.85138999,1.00599961 C1.85138999,1.44285556 1.48845385,1.79706308 1.03277025,1.79706308 Z" id="Fill-44" fill="#0078AD" mask="url(#mask-8)"></path>
                </g>
            </g>
        </g>
    </g>
</svg>