<?xml version="1.0" encoding="UTF-8"?>
<svg width="37px" height="34px" viewBox="0 0 37 34" version="1.1" xmlns="http://www.w3.org/2000/svg" xmlns:xlink="http://www.w3.org/1999/xlink">
    <!-- Generator: Sketch 51.2 (57519) - http://www.bohemiancoding.com/sketch -->
    <title>great_food</title>
    <desc>Created with Sketch.</desc>
    <defs>
        <polygon id="path-1" points="0 0 32.6970016 0 32.6970016 32.6970016 0 32.6970016"></polygon>
        <polygon id="path-3" points="0 0 16.3485008 0 16.3485008 14.5320007 0 14.5320007"></polygon>
    </defs>
    <g id="great_food" stroke="none" stroke-width="1" fill="none" fill-rule="evenodd">
        <g id="Group-4-Copy">
            <g id="Page-1">
                <mask id="mask-2" fill="white">
                    <use xlink:href="#path-1"></use>
                </mask>
                <g id="Clip-2"></g>
                <path d="M10.451054,19.8146903 C10.451054,19.4266626 10.1353049,19.1108091 9.74675494,19.1108091 C9.35841387,19.1108091 9.04256035,19.4266626 9.04256035,19.8146903 C9.04256035,20.2030314 9.35841387,20.5188849 9.74675494,20.5188849 C10.1353049,20.5188849 10.451054,20.2030314 10.451054,19.8146903 Z M11.6207774,19.8146903 C11.6207774,20.8481079 10.7798592,21.6886083 9.74675494,21.6886083 C8.71375517,21.6886083 7.87283696,20.8481079 7.87283696,19.8146903 C7.87283696,18.7815861 8.71375517,17.9410857 9.74675494,17.9410857 C10.7802769,17.9410857 11.6207774,18.7815861 11.6207774,19.8146903 Z M16.2707386,10.238396 L16.4266808,10.238396 C16.7497413,10.238396 17.0118037,9.9768559 17.0118037,9.65369095 C17.0118037,9.33063046 16.7497413,9.06867258 16.4266808,9.06867258 L16.2707386,9.06867258 C15.9476781,9.06867258 15.6857202,9.33063046 15.6857202,9.65369095 C15.6857202,9.9768559 15.9476781,10.238396 16.2707386,10.238396 Z M15.5869116,21.2581743 C15.5869116,21.5813392 15.8488694,21.8432971 16.171721,21.8432971 L16.3274544,21.8432971 C16.6506193,21.8432971 16.9125772,21.5813392 16.9125772,21.2581743 C16.9125772,20.9350093 16.6506193,20.6730515 16.3274544,20.6730515 L16.171721,20.6730515 C15.8488694,20.6730515 15.5869116,20.9350093 15.5869116,21.2581743 Z M15.4907141,25.9686115 C15.4907141,25.5805837 15.174965,25.2647302 14.7864151,25.2647302 C14.398074,25.2647302 14.0827427,25.5805837 14.0827427,25.9686115 C14.0827427,26.3569525 14.398074,26.672806 14.7864151,26.672806 C15.174965,26.672806 15.4907141,26.3569525 15.4907141,25.9686115 Z M16.6604375,25.9686115 C16.6604375,27.002029 15.8195193,27.8425294 14.7864151,27.8425294 C13.7534153,27.8425294 12.9124971,27.002029 12.9124971,25.9686115 C12.9124971,24.9355072 13.7534153,24.094589 14.7864151,24.094589 C15.8195193,24.094589 16.6604375,24.9355072 16.6604375,25.9686115 Z M18.4568544,26.2888518 L18.6126922,26.2888518 C18.9358571,26.2888518 19.197815,26.0268939 19.197815,25.7041468 C19.197815,25.3810863 18.9358571,25.1191284 18.6126922,25.1191284 L18.4568544,25.1191284 C18.1336895,25.1191284 17.8717316,25.3810863 17.8717316,25.7041468 C17.8717316,26.0268939 18.1336895,26.2888518 18.4568544,26.2888518 Z M23.4023016,29.7918595 L15.841558,16.6398611 C15.7375269,16.4588511 15.7375269,16.2360616 15.8423936,16.0553649 C15.9468425,15.8745639 16.1397597,15.7636391 16.3486575,15.7636391 L29.1212975,15.7636391 C28.9616996,12.2633471 27.3725093,8.97592195 24.7059285,6.67125664 C24.4614136,6.45985204 24.4348836,6.09052067 24.6458704,5.84621466 C24.8571705,5.60190865 25.2265019,5.57496083 25.4712257,5.78626098 C28.3949597,8.31340248 30.1318407,11.9230525 30.2922743,15.7636391 L31.5162067,15.7636391 C31.3199472,10.6076229 28.5399348,6.10284565 24.4365548,3.5087524 L18.0941033,14.4951071 C17.9326253,14.7746124 17.5747833,14.8704965 17.2948602,14.708914 C17.0149371,14.5473315 16.9194708,14.1898029 17.0806355,13.9099842 L22.2297581,4.99192699 C20.4218518,4.05512467 18.4001386,3.56212579 16.3483442,3.56212579 C14.8272546,3.56212579 13.3385442,3.82659044 11.9243059,4.34810388 C11.6207774,4.45986421 11.2849741,4.30486203 11.1732138,4.00164683 C11.061349,3.69853607 11.2164556,3.36231502 11.5195664,3.25055468 C13.0638436,2.68099475 14.6885464,2.39208905 16.3483442,2.39208905 C18.6057985,2.39208905 20.8294115,2.93877467 22.8151943,3.97804137 L23.4247581,2.92206284 C21.3103987,1.80331051 18.9020157,1.1697234 16.3483442,1.1697234 C13.7945682,1.1697234 11.3861851,1.80331051 9.27224352,2.92206284 L15.6159484,13.9099842 C15.7775308,14.1898029 15.6816467,14.5477493 15.4017236,14.7093318 C15.1218005,14.8709143 14.7643764,14.7750301 14.6028983,14.4951071 L9.45471577,5.57778095 C6.3722194,7.5505076 4.29420824,10.7109229 3.7205748,14.3307045 C3.67002152,14.6497959 3.37014869,14.8675719 3.05147505,14.8164964 C2.73238361,14.7660475 2.51450318,14.4665925 2.5651609,14.1475011 C3.19425671,10.1776067 5.47991232,6.71449849 8.86917515,4.56347754 L8.26002908,3.5087524 C4.15717126,6.10284565 1.37705449,10.6079362 1.18079498,15.7636391 L13.8709203,15.7636391 C14.1940853,15.7636391 14.4559387,16.0254926 14.4559387,16.3486575 C14.4559387,16.6714046 14.1940853,16.9333625 13.8709203,16.9333625 L3.57570415,16.9333625 C3.73728662,20.485879 5.36522741,23.8069367 8.09886441,26.1175556 C8.3452594,26.3260356 8.37628073,26.6952626 8.16780069,26.9416575 C7.95942511,27.1884703 7.59009374,27.2194917 7.34369875,27.0109072 C4.34643269,24.4772898 2.56672763,20.831396 2.40472737,16.9333625 L1.18079498,16.9333625 C1.37705449,22.0892743 4.15717126,26.5940516 8.26044688,29.1881448 L14.6028983,18.2017901 C14.7647942,17.9219715 15.1222183,17.8260874 15.4021414,17.9876699 C15.6816467,18.1491479 15.7775308,18.5068854 15.6163662,18.786913 L10.467348,27.7046569 C12.2751498,28.6417725 14.296863,29.1345625 16.3486575,29.1345625 C17.8714182,29.1345625 19.3609642,28.869889 20.7760381,28.3476444 C21.0790444,28.235884 21.4152655,28.3908862 21.5271302,28.693997 C21.6388906,28.9967944 21.4838884,29.3334332 21.181091,29.4451936 C19.6360826,30.0155891 18.0101264,30.3048082 16.3486575,30.3048082 C14.0916209,30.3048082 11.8676946,29.7581225 9.88180738,28.7189603 L9.27224352,29.7748344 C11.3866029,30.8931689 13.794986,31.5271738 16.3486575,31.5271738 C18.8114585,31.5271738 21.2374934,30.9286815 23.4023016,29.7918595 Z M24.7368454,29.7078826 C24.8918476,29.9764208 24.8098552,30.3171331 24.5553132,30.4864448 C24.537348,30.4999187 24.5181294,30.512557 24.4981796,30.523942 C22.0301562,31.9453873 19.2121245,32.6970016 16.3486575,32.6970016 C13.3955733,32.6970016 10.6228724,31.9099791 8.2291122,30.5345958 C8.21020695,30.5263443 8.19234619,30.5170483 8.17438097,30.5068124 C8.15558017,30.4957408 8.13803275,30.4843558 8.12090313,30.4721353 C3.26726651,27.6336316 0,22.3655417 0,16.3486575 C0,10.33146 3.26726651,5.0632656 8.12090313,2.22486633 C8.13803275,2.21254136 8.15558017,2.20115643 8.17438097,2.19008485 C8.19234619,2.1799533 8.21062475,2.1705529 8.2291122,2.16240588 C10.6228724,0.787022573 13.3955733,0 16.3486575,0 C19.3014283,0 22.0742337,0.787022573 24.4679939,2.16240588 C24.4867947,2.1705529 24.5046555,2.1799533 24.5226207,2.19008485 C24.5414215,2.20073864 24.5589689,2.21254136 24.5760985,2.22486633 C29.4301529,5.0632656 32.6970016,10.33146 32.6970016,16.3482397 L32.6970016,16.3486575 C32.6970016,16.6714046 32.4354616,16.9333625 32.1122966,16.9333625 L18.8261858,16.9333625 L18.8142786,16.9333625 L17.3593052,16.9333625 L18.053786,18.1413142 C18.0684089,18.1606373 18.0819872,18.1804826 18.0941033,18.2017901 L24.7368454,29.7078826 Z M17.7947527,7.04131914 L17.9509039,7.04131914 C18.2737554,7.04131914 18.5356089,6.77977906 18.5356089,6.45661412 C18.5356089,6.13344918 18.2737554,5.87159575 17.9509039,5.87159575 L17.7947527,5.87159575 C17.4719011,5.87159575 17.2100477,6.13344918 17.2100477,6.45661412 C17.2100477,6.77977906 17.4719011,7.04131914 17.7947527,7.04131914 Z M6.28406451,13.5321925 L6.12822673,13.5321925 C5.80506179,13.5321925 5.54352171,13.7941504 5.54352171,14.1168975 C5.54352171,14.4400625 5.80506179,14.7020204 6.12822673,14.7020204 L6.28406451,14.7020204 C6.60722945,14.7020204 6.86918733,14.4400625 6.86918733,14.1168975 C6.86918733,13.7936281 6.60722945,13.5321925 6.28406451,13.5321925 Z M9.56083587,10.7989733 C9.56083587,10.4106322 9.24498235,10.0947787 8.85695463,10.0947787 C8.46861357,10.0947787 8.15276005,10.4106322 8.15276005,10.7989733 C8.15276005,11.1868966 8.46861357,11.5028545 8.85695463,11.5028545 C9.24498235,11.5028545 9.56083587,11.1868966 9.56083587,10.7989733 Z M10.7308726,10.7989733 C10.7308726,11.8320775 9.89005885,12.6729957 8.85695463,12.6729957 C7.82343262,12.6729957 6.9829322,11.8320775 6.9829322,10.7989733 C6.9829322,9.76555574 7.82343262,8.92505532 8.85695463,8.92505532 C9.89005885,8.92505532 10.7308726,9.76555574 10.7308726,10.7989733 Z M23.330963,12.4073821 C23.330963,12.7958277 23.6467121,13.1115767 24.0350531,13.1115767 C24.4234987,13.1115767 24.7392477,12.7958277 24.7392477,12.4073821 C24.7392477,12.0193544 24.4234987,11.7036054 24.0350531,11.7036054 C23.6467121,11.7036054 23.330963,12.0193544 23.330963,12.4073821 Z M22.1611352,12.4073821 C22.1611352,11.3742779 23.0020534,10.5337775 24.0350531,10.5337775 C25.0685752,10.5337775 25.9090756,11.3742779 25.9090756,12.4073821 C25.9090756,13.4407997 25.0685752,14.2811957 24.0350531,14.2811957 C23.0020534,14.2811957 22.1611352,13.4407997 22.1611352,12.4073821 Z M14.9023534,5.87159575 L14.7465156,5.87159575 C14.4237684,5.87159575 14.1618106,6.13344918 14.1618106,6.45661412 C14.1618106,6.77977906 14.4237684,7.04131914 14.7465156,7.04131914 L14.9023534,7.04131914 C15.2255183,7.04131914 15.4873717,6.77977906 15.4873717,6.45661412 C15.4873717,6.13344918 15.2255183,5.87159575 14.9023534,5.87159575 Z M11.3053416,13.5321925 L11.1495039,13.5321925 C10.8263389,13.5321925 10.5644855,13.7941504 10.5644855,14.1168975 C10.5644855,14.4400625 10.8263389,14.7020204 11.1495039,14.7020204 L11.3053416,14.7020204 C11.6285066,14.7020204 11.8904645,14.4400625 11.8904645,14.1168975 C11.8904645,13.7936281 11.6285066,13.5321925 11.3053416,13.5321925 Z M5.65246192,18.2528657 L5.49662414,18.2528657 C5.173877,18.2528657 4.91191912,18.5147191 4.91191912,18.8374662 C4.91191912,19.1606312 5.173877,19.4225891 5.49662414,19.4225891 L5.65246192,19.4225891 C5.97562687,19.4225891 6.23758475,19.1606312 6.23758475,18.8374662 C6.23758475,18.5147191 5.97562687,18.2528657 5.65246192,18.2528657 Z M9.24540015,23.6335515 C9.24540015,23.9562987 8.98344227,24.2182565 8.66069512,24.2182565 L8.50485734,24.2182565 C8.1816924,24.2182565 7.91973452,23.9562987 7.91973452,23.6335515 C7.91973452,23.3103866 8.1816924,23.0485331 8.50485734,23.0485331 L8.66069512,23.0485331 C8.98344227,23.0485331 9.24540015,23.3103866 9.24540015,23.6335515 Z" id="Fill-1" fill="#0073AA" mask="url(#mask-2)"></path>
            </g>
            <g id="Page-1" transform="translate(19.981501, 18.165001)">
                <mask id="mask-4" fill="white">
                    <use xlink:href="#path-3"></use>
                </mask>
                <g id="Clip-2"></g>
                <path d="M15.2080755,1.14570513 L1.54071969,1.14570513 L7.20089598,11.1337988 C10.0993048,9.25852499 12.0945701,6.26117624 12.7099097,2.8271297 C12.765373,2.515948 13.0585215,2.3093119 13.3664938,2.36598339 C13.6733568,2.42234799 13.876554,2.72084509 13.8210908,3.03212908 C13.1462542,6.7986347 10.951422,10.0837396 7.76460433,12.1280049 L8.35311987,13.1674254 C12.4427785,10.5579797 15.0205088,6.03745685 15.2080755,1.14570513 M16.3485008,0.572647974 C16.3485008,3.43854752 15.593293,6.25002607 14.1641562,8.70429013 C12.7772723,11.0862316 10.795419,13.0750529 8.43268443,14.4560368 C8.34606091,14.506366 8.17432651,14.5623214 8.00380221,14.5127082 C7.85959775,14.4707673 7.73586428,14.3768604 7.66103931,14.245002 L0.0750780034,0.858358191 C-0.0253609068,0.680978486 -0.0250583799,0.462783036 0.0761872685,0.285710217 C0.177029548,0.108739692 0.36338608,0 0.564667269,0 L15.7839857,0 C16.0958909,0 16.3485008,0.256146932 16.3485008,0.572647974 M5.94863656,4.34079031 C6.0317306,4.38395884 6.12037096,4.40472475 6.20749869,4.40472475 C6.41190599,4.40472475 6.60925433,4.29168866 6.70979408,4.0946683 L6.77866936,3.9588204 C6.92206708,3.67791805 6.81325826,3.33226291 6.53634536,3.18679928 C6.25943247,3.04174482 5.9186864,3.15201894 5.77538952,3.43292129 L5.70641341,3.56876918 C5.56301568,3.84967153 5.67172366,4.19532667 5.94863656,4.34079031 M8.01630666,7.10357639 C8.09899732,7.1471541 8.18763769,7.16751083 8.27476542,7.16751083 C8.47917272,7.16751083 8.67652106,7.05478163 8.77706081,6.85745438 L8.84633946,6.72191337 C8.98933381,6.44060184 8.88052499,6.0949467 8.60320872,5.94989224 C8.32629582,5.80453091 7.98595313,5.9152142 7.84265625,6.19611655 L7.77368013,6.33196445 C7.63028241,6.61286679 7.73909123,6.95852194 8.01630666,7.10357639 M9.36708899,4.45106443 C9.44977966,4.49464214 9.53842002,4.51499886 9.62544691,4.51499886 C9.82995505,4.51499886 10.0273034,4.40196278 10.1277423,4.20453323 L10.1966176,4.06909452 C10.3396119,3.78778299 10.2310048,3.44212785 9.95368853,3.29707339 C9.67667478,3.15201894 9.33602956,3.26270224 9.19303521,3.54360459 L9.12405909,3.67955478 C8.98106474,3.96035483 9.08977272,4.30611227 9.36708899,4.45106443" id="Fill-1" fill="#DC062B" mask="url(#mask-4)"></path>
            </g>
        </g>
    </g>
</svg>